# xmcd
#
# Track frame offsets: 
#        150
#        14212
#        24967
#        36170
#        47037
#        58702
#        70055
#        81585
#        94215
#        105350
#        114270
#        128672
#        138897
#        149345
#        161745
#        173035
#        184135
#        195470
#        206615
#        219757
#        231075
#        242417
#        254270
#        264650
#        276317
#
# Disc length: 3815 seconds
#
# Revision: 4
# Processed by: cddbd v1.5.2PL0 Copyright (c) Steve Scherf et al.
# Submitted via: ExactAudioCopyFreeDBPlugin 1.0
#
DISCID=620ee519
DTITLE=Patsy Cline - Walkin´ After Midnight
DYEAR=2004
DGENRE=Country
TTITLE0=A Church, a Courtroom and Then Goodbye
TTITLE1=Honky Tonk Merry Go Round
TTITLE2=Hidin' Out
TTITLE3=I Cried All the Way to the Altar
TTITLE4=I've Loved and Lost Again
TTITLE5=Dear God
TTITLE6=Walkin' After Midnight
TTITLE7=Fingerprints
TTITLE8=A Stranger in My Arms
TTITLE9=Try Again
TTITLE10=Then You'll Know
TTITLE11=Three Cigarettes in an Ashtray
TTITLE12=He Will Do for You
TTITLE13=A Poor Man's Roses (Or a Rich Man's Gold)
TTITLE14=Hungry for Love
TTITLE15=I Can't Forget
TTITLE16=That Wonderful Someone
TTITLE17=Stop the World (And Let Me Off)
TTITLE18=If I Could See the World (Through the Eyes of a Child)
TTITLE19=Cry Not for Me
TTITLE20=Just Out of Reach (Of My Two Open Arms)
TTITLE21=Never No More
TTITLE22=Walking Dream
TTITLE23=In Care of the Blues
TTITLE24=Turn the Cards Slowly
EXTD=Year: 2004 [CD 1 from 2)
EXTT0=
EXTT1=
EXTT2=
EXTT3=
EXTT4=
EXTT5=
EXTT6=
EXTT7=
EXTT8=
EXTT9=
EXTT10=
EXTT11=
EXTT12=
EXTT13=
EXTT14=
EXTT15=
EXTT16=
EXTT17=
EXTT18=
EXTT19=
EXTT20=
EXTT21=
EXTT22=
EXTT23=
EXTT24=
PLAYORDER=
